<svg width="411" height="538" xmlns="http://www.w3.org/2000/svg"><path d="M160.772 152.024c50.074 0 90.666 40.602 90.666 90.686 0 50.084-40.592 90.684-90.666 90.684" fill="#ff8059"/><path d="M342.006 348.99c0 50.263-40.518 91.01-90.498 91.01-49.98 0-90.498-40.747-90.498-91.01" fill="#b9d1e4"/><path d="M1 537.999v-150c0-38.66 31.34-70 70-70s70 31.34 70 70v150" fill="#3aafc9"/><path d="M272-.001h139v329H272z" fill="#676cdb"/><path d="M71.5 154.998c39.488 0 71.5 32.011 71.5 71.5S110.988 298 71.5 298 0 265.987 0 226.499c0-39.49 32.012-71.5 71.5-71.5z" fill="#ffd041"/></svg>