<svg width="58" height="44" xmlns="http://www.w3.org/2000/svg"><path d="M24.157 5.255c-5.88 2.243-9.657 8.894-9.657 14.3h9.625v24.443H0V25.93C0 11.988 9.058 2.538 21.75 0zm33.83 0c-5.877 2.243-9.654 8.894-9.654 14.3H58v24.443H33.874V25.93c0-13.943 9.017-23.393 21.71-25.932zm-3.774-2.431C43.106 5.769 36.29 14.474 36.29 25.93v15.623h19.292V21.998h-9.666v-2.444c0-5.292 3.093-12.058 8.878-15.459zM20.38 2.82l.582 1.275c-5.786 3.4-8.879 10.167-8.879 15.46v2.443h9.626v19.556H2.417V25.931c0-11.454 6.831-20.16 17.963-23.111" fill="#fff"/></svg>